<svg width="32" height="32" viewBox="0 0 32 32" fill="none" xmlns="http://www.w3.org/2000/svg">
<path d="M24.6666 6.38666C21.2 12.4533 14.52 15.9333 7.55998 15.3067L3.33331 14.92" stroke="#EEEEEE" stroke-opacity="0.933333" stroke-width="1.5" stroke-miterlimit="10" stroke-linecap="round" stroke-linejoin="round"/>
<path d="M7.33331 25.8267C10.8 19.76 17.48 16.28 24.44 16.9067L28.6666 17.2933" stroke="#EEEEEE" stroke-opacity="0.933333" stroke-width="1.5" stroke-miterlimit="10" stroke-linecap="round" stroke-linejoin="round"/>
<path d="M16 29.3333C23.3638 29.3333 29.3334 23.3638 29.3334 16C29.3334 8.63619 23.3638 2.66666 16 2.66666C8.63622 2.66666 2.66669 8.63619 2.66669 16C2.66669 23.3638 8.63622 29.3333 16 29.3333Z" stroke="#EEEEEE" stroke-opacity="0.933333" stroke-width="1.5" stroke-miterlimit="10" stroke-linecap="round" stroke-linejoin="round"/>
<path d="M10.1733 4L14.4133 9.26667C17.2533 12.7867 19.2667 16.88 20.3333 21.2667L21.9467 27.92" stroke="#EEEEEE" stroke-opacity="0.933333" stroke-width="1.5" stroke-miterlimit="10" stroke-linecap="round" stroke-linejoin="round"/>
</svg>
