<svg width="32" height="32" viewBox="0 0 32 32" fill="none" xmlns="http://www.w3.org/2000/svg">
<path d="M12 29.3333H20C26.6667 29.3333 29.3334 26.6667 29.3334 20V12C29.3334 5.33332 26.6667 2.66666 20 2.66666H12C5.33335 2.66666 2.66669 5.33332 2.66669 12V20C2.66669 26.6667 5.33335 29.3333 12 29.3333Z" stroke="#EEEEEE" stroke-width="1.5" stroke-linecap="round" stroke-linejoin="round"/>
<path d="M16 20.6667C18.5773 20.6667 20.6666 18.5773 20.6666 16C20.6666 13.4227 18.5773 11.3333 16 11.3333C13.4227 11.3333 11.3333 13.4227 11.3333 16C11.3333 18.5773 13.4227 20.6667 16 20.6667Z" stroke="#EEEEEE" stroke-width="1.5" stroke-linecap="round" stroke-linejoin="round"/>
<path d="M23.5148 9.33332H23.5303" stroke="#EEEEEE" stroke-width="2" stroke-linecap="round" stroke-linejoin="round"/>
</svg>
